<?xml version="1.0" encoding="utf-8"?><svg xml:space="preserve" viewBox="0 0 100 100" y="0" x="0" xmlns="http://www.w3.org/2000/svg" id="圖層_1" version="1.1" width="25px" height="25px" xmlns:xlink="http://www.w3.org/1999/xlink" style="width:100%;height:100%;background-size:initial;background-repeat-y:initial;background-repeat-x:initial;background-position-y:initial;background-position-x:initial;background-origin:initial;background-color:initial;background-clip:initial;background-attachment:initial;animation-play-state:paused" ><g class="ldl-scale" style="transform-origin:50% 50%;transform:rotate(0deg) scale(0.8, 0.8);animation-play-state:paused" ><path stroke-miterlimit="10" stroke-width="8" stroke="#333" fill="none" d="M76.5 90h-53C16 90 10 84 10 76.5v-53C10 16 16 10 23.5 10h53C84 10 90 16 90 23.5v53C90 84 84 90 76.5 90z" style="stroke:rgb(255, 255, 255);animation-play-state:paused" ></path>
<path fill="#abbd81" d="M69 44H56V31c0-3.3-2.7-6-6-6s-6 2.7-6 6v13H31c-3.3 0-6 2.7-6 6s2.7 6 6 6h13v13c0 3.3 2.7 6 6 6s6-2.7 6-6V56h13c3.3 0 6-2.7 6-6s-2.7-6-6-6z" style="fill:rgb(171, 189, 129);animation-play-state:paused" ></path>
<metadata xmlnsD="https://loading.io/stock/" style="animation-play-state:paused" ><dName style="animation-play-state:paused" >add</dName>
<dTags style="animation-play-state:paused" >add,plus,cross,new,create,upload,insert,append,square,form</dTags>
<dLicense style="animation-play-state:paused" >by</dLicense>
<dSlug style="animation-play-state:paused" >v4s83c</dSlug></metadata></g><!-- generated by https://loading.io/ --></svg>