<?xml version="1.0" encoding="utf-8"?><svg xml:space="preserve" viewBox="0 0 100 100" y="0" x="0" xmlns="http://www.w3.org/2000/svg" id="圖層_1" version="1.1" width="25px" height="25px" xmlns:xlink="http://www.w3.org/1999/xlink" style="width:100%;height:100%;background-size:initial;background-repeat-y:initial;background-repeat-x:initial;background-position-y:initial;background-position-x:initial;background-origin:initial;background-color:initial;background-clip:initial;background-attachment:initial;animation-play-state:paused" ><g class="ldl-scale" style="transform-origin:50% 50%;transform:rotate(0deg) scale(0.8, 0.8);animation-play-state:paused" ><path stroke-miterlimit="10" stroke-width="8" stroke="#333" fill="none" d="M76.5 90h-53C16 90 10 84 10 76.5v-53C10 16 16 10 23.5 10h53C84 10 90 16 90 23.5v53C90 84 84 90 76.5 90z" style="stroke:rgb(255, 255, 255);animation-play-state:paused" ></path>
<path fill="#e15b64" d="M63.9 29L50 42.9 36.1 29c-2-2-5.2-2-7.1 0s-2 5.2 0 7.1L42.9 50 29 63.9c-2 2-2 5.2 0 7.1 2 2 5.2 2 7.1 0L50 57.1 63.9 71c2 2 5.2 2 7.1 0 2-2 2-5.2 0-7.1L57.1 50 71 36.1c2-2 2-5.2 0-7.1-1.9-2-5.1-2-7.1 0z" style="fill:rgb(225, 56, 56);animation-play-state:paused" ></path>
<metadata xmlnsD="https://loading.io/stock/" style="animation-play-state:paused" ><dName style="animation-play-state:paused" >close</dName>
<dTags style="animation-play-state:paused" >close,reject,off,disable,remove,delete,cancel,drop,collapse,square,form</dTags>
<dLicense style="animation-play-state:paused" >by</dLicense>
<dSlug style="animation-play-state:paused" >4gt96j</dSlug></metadata></g><!-- generated by https://loading.io/ --></svg>