<?xml version="1.0" encoding="utf-8"?><svg xml:space="preserve" viewBox="0 0 100 100" y="0" x="0" xmlns="http://www.w3.org/2000/svg" id="圖層_1" version="1.1" width="25px" height="25px" xmlns:xlink="http://www.w3.org/1999/xlink" style="width:100%;height:100%;background-size:initial;background-repeat-y:initial;background-repeat-x:initial;background-position-y:initial;background-position-x:initial;background-origin:initial;background-color:initial;background-clip:initial;background-attachment:initial;animation-play-state:paused" ><g class="ldl-scale" style="transform-origin:50% 50%;transform:rotate(0deg) scale(0.8, 0.8);animation-play-state:paused" ><path fill="#333" d="M80.75 95h-61.5C11.393 95 5 88.607 5 80.75v-61.5C5 11.393 11.393 5 19.25 5h61.5C88.607 5 95 11.393 95 19.25v61.5C95 88.607 88.607 95 80.75 95zm-61.5-80A4.255 4.255 0 0 0 15 19.25v61.5A4.255 4.255 0 0 0 19.25 85h61.5A4.255 4.255 0 0 0 85 80.75v-61.5A4.255 4.255 0 0 0 80.75 15h-61.5z" style="fill:rgb(255, 255, 255);animation-play-state:paused" ></path>
<metadata xmlnsD="https://loading.io/stock/" style="animation-play-state:paused" ><dName style="animation-play-state:paused" >square</dName>


<dTags style="animation-play-state:paused" >choice,check box,select,option,empty,square,form</dTags>


<dLicense style="animation-play-state:paused" >by</dLicense>


<dSlug style="animation-play-state:paused" >e4ry7a</dSlug></metadata></g><!-- generated by https://loading.io/ --></svg>